<?xml version="1.0" standalone="no"?><!DOCTYPE svg PUBLIC "-//W3C//DTD SVG 1.1//EN" "http://www.w3.org/Graphics/SVG/1.1/DTD/svg11.dtd"><svg t="1595244917897" class="icon" viewBox="0 0 1024 1024" version="1.1" xmlns="http://www.w3.org/2000/svg" p-id="5508" xmlns:xlink="http://www.w3.org/1999/xlink" width="200" height="200"><defs><style type="text/css"></style></defs><path d="M512 62.2c-247.9 0-448.9 201-448.9 448.9S264.1 960 512 960s448.9-201 448.9-448.9S759.9 62.2 512 62.2z m179.7 641c-1.3 12.4-10.5 22.1-22.1 24.5-70.1 51.4-161.1 65.9-244.1 38.2C310.2 727.4 238.4 618.3 242 502.7l-16 12.7c-12.2 9.6-29.9 7.5-39.5-4.6-9.8-12.1-8-29.9 4.1-39.7l0.3-0.3 71.8-57.3c0.7-0.7 1.5-1.4 2.3-2.1 7.3-5.8 16.7-7.4 25-5.1 5.8 1.5 11.1 4.9 15 9.9 0.6 0.7 1.1 1.5 1.6 2.3l57 71.9c9.8 12.1 7.9 29.8-4.1 39.6-12.1 9.8-29.9 8-39.7-4.1l-0.3-0.3-20.9-26.2c-2.8 52.7 14.1 105.3 48.7 147 73 87.9 201.9 102 291.9 33.4 5.4-9.2 15.9-14.9 27.2-13.7 15.5 1.7 26.7 15.5 25 31 0.5 2.1 0.5 4.2 0.3 6.1z m143.1-183.1s-0.1 0.1 0 0L770 580.6c-5.3 9.7-16.1 15.8-27.7 14.5-11.2-1.2-20.1-8.8-23.6-18.7l-58.9-63.1c-10.6-11.3-10.1-29 1.1-39.7 0.1 0 0.1-0.1 0.2-0.1 11.4-10.7 29.2-10.1 39.9 1.3l0.1 0.1 21.7 23.3c-2.6-42.6-18-83.9-44.8-118.2-71.8-91.7-204-108.2-296.2-37.6-5.2 5.9-12.7 9.5-21.1 9.5-15.5 0-28.2-12.6-28.2-28.2 0-9.6 4.8-18.1 12.2-23.2l-0.4-0.5c47.4-37.5 106-57.8 166.4-57.7 19.4 0 38.7 2.1 57.7 6.3C688.6 275 772.1 378 779.1 495l17.2-16c11.3-10.6 29.1-10.1 39.8 1.2 10.6 11.4 10.1 29.2-1.3 39.9z" p-id="5509" fill="#707070"></path></svg>